PathFileType	4	(X/Y/Z)	F:\MotionCapture\20160217\3\Generated_files\2_Test02-Dynamic.trc
DataRate	CameraRate	NumFrames	NumMarkers	Units	OrigDataRate	OrigDataStartFrame	OrigNumFrames
120.00	120.00	       4	39	mm	120.00	157	       627
Frame#	Time	Top.Head			Front.Head			Rear.Head			R.Shoulder			R.Offset			R.Elbow			R.Wrist			L.Shoulder			L.Elbow			L.Wrist			R.ASIS			L.ASIS			V.Sacral			R.Thigh			R.Knee			R.Shank			R.Ankle			R.Heel			R.Toe			L.Thigh			L.Knee			L.Shank			L.Ankle			L.Heel			L.Toe			R1			R2			R3			R4			R5			R6			R7			L1			L2			L3			L4			L5			L6			L7			V_Mid_ASIS			V_Pelvis_Origin			V_R.Hip_JC			V_L.Hip_JC			V_R.Knee_JC			V_L.Knee_JC			V_R.Ankle_JC			V_L.Ankle_JC			V_Mid_Hip			V_Mid_Shoulder			V_R.Hand			V_L.Hand			V_R.Toe_Offset_Static			V_L.Toe_Offset_Static			V_R.Toe_Offset			V_L.Toe_Offset			
		X1	Y1	Z1	X2	Y2	Z2	X3	Y3	Z3	X4	Y4	Z4	X5	Y5	Z5	X6	Y6	Z6	X7	Y7	Z7	X8	Y8	Z8	X9	Y9	Z9	X10	Y10	Z10	X11	Y11	Z11	X12	Y12	Z12	X13	Y13	Z13	X14	Y14	Z14	X15	Y15	Z15	X16	Y16	Z16	X17	Y17	Z17	X18	Y18	Z18	X19	Y19	Z19	X20	Y20	Z20	X21	Y21	Z21	X22	Y22	Z22	X23	Y23	Z23	X24	Y24	Z24	X25	Y25	Z25	X26	Y26	Z26	X27	Y27	Z27	X28	Y28	Z28	X29	Y29	Z29	X30	Y30	Z30	X31	Y31	Z31	X32	Y32	Z32	X33	Y33	Z33	X34	Y34	Z34	X35	Y35	Z35	X36	Y36	Z36	X37	Y37	Z37	X38	Y38	Z38	X39	Y39	Z39	

157	1.300	262.95569	238.47308	1712.72192	166.35037	230.94002	1612.09924	381.26941	234.02817	1662.50757	361.03830	421.88885	1418.14038	507.81296	155.52226	1287.57629	440.11267	544.73999	1113.35925	329.80905	556.59973	873.46143	340.68961	16.95329	1420.80249	375.07379	-104.73438	1108.28345	244.28009	-99.02869	884.78088	314.69238	356.84164	949.49982	315.28006	71.70648	950.50378	540.47998	214.00153	949.65118	265.65475	303.12958	578.20032	336.05600	346.67831	461.47125	342.64597	258.07108	233.97054	406.28574	321.61780	64.38715	473.96640	259.39273	46.70502	263.09311	301.17133	38.51813	209.53601	74.95608	650.81299	279.32166	13.16331	479.49609	343.78018	91.39842	350.15173	585.63300	55.46837	213.52347	636.12476	124.33623	240.04224	510.89685	46.93665	97.21004	217.10115	278.99930	37.23588	257.95584	263.11002	44.45215	355.49347	229.25323	56.15994	431.28854	228.97264	47.10788	442.68774	302.25726	42.07919	367.91339	327.73444	34.55068	301.90027	345.72830	33.49074	476.61047	60.89624	60.17603	495.29529	80.39991	88.74245	541.74396	134.96512	160.52014	602.43073	148.20689	212.73105	624.75623	80.90815	222.40265	585.69934	40.50920	163.08597	544.15186	24.02374	120.36880	
158	1.308	251.12672	238.42203	1713.86548	154.56908	230.72733	1613.27734	369.85709	234.27039	1663.80493	348.75031	421.98199	1420.07886	496.85568	156.59259	1288.75684	424.35635	546.89758	1114.69678	308.54260	558.08655	877.83142	330.01129	17.21455	1421.95178	369.77524	-105.00921	1110.42676	245.17632	-101.83428	883.36914	303.94858	358.57684	950.13831	303.26990	73.57428	952.62109	529.69281	212.94612	951.47363	260.86810	303.58536	577.36053	333.59711	347.20901	461.66306	342.03949	258.13809	233.83003	405.73199	321.71564	64.90336	473.64563	258.93198	46.95166	263.05243	301.22519	38.50438	193.06631	76.06985	656.53418	259.59967	14.19849	483.29407	319.06277	93.30137	352.58060	556.11487	57.76392	206.05511	608.38220	126.88546	229.46942	473.71588	47.16904	95.40615	216.91837	279.22879	37.16794	257.87637	263.21237	44.49294	354.62488	229.12744	56.65273	430.91745	228.59270	47.49822	441.96945	302.33585	43.84737	367.82532	327.48569	34.61043	301.90601	345.80093	33.47132	438.76678	61.64079	58.97845	458.68417	81.09728	87.18709	508.56683	135.80252	155.07506	573.85437	150.27788	203.89389	594.90936	83.04573	212.48849	552.80072	42.10987	156.25984	508.58279	25.36730	116.80314	
159	1.317	239.25500	238.33759	1714.90173	142.83298	230.37912	1613.98682	358.00320	234.76472	1664.86316	336.82733	422.26743	1421.22083	485.49475	157.59074	1290.08801	408.66409	548.54254	1115.96191	287.13635	559.22729	882.26569	319.06555	17.55785	1422.74487	364.34900	-105.39270	1112.53528	245.28654	-104.64227	882.32214	294.73123	360.10434	950.77502	291.49310	75.23824	954.65814	518.80457	211.94389	952.66626	256.26837	304.07001	576.24768	330.63104	346.95581	461.71811	341.06284	258.29279	233.97762	404.84274	320.82043	65.56094	473.22931	258.48044	47.29972	262.86362	301.27087	38.51614	177.09215	77.16681	662.37451	239.68666	15.29693	486.84534	295.25613	95.05003	354.17722	525.60339	59.88514	198.07912	579.28522	129.50746	218.61234	437.91565	48.04974	92.88857	216.75453	279.59943	36.96826	257.66354	263.32684	44.39933	354.36011	229.17670	56.85239	431.04163	228.31427	47.84549	441.87082	302.08624	44.27121	367.72009	327.23511	34.72573	301.91049	345.83618	33.36955	400.49582	61.59510	58.76203	421.55099	81.50203	85.62550	475.90311	137.77444	149.26407	543.92108	152.96941	194.31013	565.34418	85.57267	202.48196	520.24872	43.99277	149.10858	472.98294	26.23777	112.85683																																																	35.90396	520.18555	814.80548	
160	1.325	227.66237	238.35422	1715.41785	131.58104	230.44106	1614.70056	346.19061	234.79266	1665.49219	324.77780	422.40118	1422.47742	474.21356	158.51849	1291.13574	392.56784	550.12054	1116.92114	266.25671	560.49023	886.45038	309.02789	17.61442	1423.36084	359.15369	-105.48853	1114.35266	245.67451	-107.32565	881.25012	284.79828	361.77878	951.08960	279.41434	76.90804	956.02405	507.76974	210.52303	953.78845	251.29938	303.92801	575.13654	328.19611	346.71594	461.59753	339.32681	257.76392	234.00191	408.90906	321.80682	68.26575	472.90527	257.98138	47.81213	261.83325	301.19882	39.01071	161.01210	78.30484	667.60016	220.83438	16.27918	490.12680	270.54370	96.96452	355.71786	495.17307	61.75481	189.59474	548.93152	131.82787	207.20848	400.96957	48.76346	90.41375	216.68085	279.84048	36.76999	257.55023	263.48178	44.36054	353.97308	229.27956	57.07457	430.64157	227.82964	48.53219	441.65683	301.88275	44.60500	367.48901	327.12451	34.89440	301.91602	345.79312	33.28474	362.03262	61.58479	58.29701	383.43359	81.73862	83.85308	441.88065	138.94545	143.19023	513.25037	156.04370	183.87564	534.79565	87.64074	192.16251	486.33078	45.30141	141.77902	437.68692	27.22533	108.93161																																																	12.57943	520.83118	819.07501	
